<?xml version="1.0" encoding="utf-8"?><!-- Uploaded to: SVG Repo, www.svgrepo.com, Generator: SVG Repo Mixer Tools -->
<svg fill="#000000" width="800px" height="800px" viewBox="0 0 24 24" id="bill-dollar-left" data-name="Flat Line" xmlns="http://www.w3.org/2000/svg" class="icon flat-line"><path id="secondary" d="M18,3H10A8.48,8.48,0,0,1,5,18v3l2.33-1,2.33,1L12,20l2.34,1,2.33-1L19,21V4A1,1,0,0,0,18,3Z" style="fill: rgb(44, 169, 188); stroke-width: 2;"></path><path id="primary" d="M5,13H7.5A1.5,1.5,0,0,0,9,11.5H9A1.5,1.5,0,0,0,7.5,10h-1A1.5,1.5,0,0,1,5,8.5H5A1.5,1.5,0,0,1,6.5,7H9" style="fill: none; stroke: rgb(0, 0, 0); stroke-linecap: round; stroke-linejoin: round; stroke-width: 2;"></path><path id="primary-2" data-name="primary" d="M7,7V6m0,8V13m5,2h3m-2-4h2" style="fill: none; stroke: rgb(0, 0, 0); stroke-linecap: round; stroke-linejoin: round; stroke-width: 2;"></path><path id="primary-3" data-name="primary" d="M5,18v3l2.33-1,2.33,1L12,20l2.34,1,2.33-1L19,21V4a1,1,0,0,0-1-1H10" style="fill: none; stroke: rgb(0, 0, 0); stroke-linecap: round; stroke-linejoin: round; stroke-width: 2;"></path></svg>